<mxfile host="Electron" agent="Mozilla/5.0 (X11; Linux x86_64) AppleWebKit/537.36 (KHTML, like Gecko) draw.io/27.0.9 Chrome/134.0.6998.205 Electron/35.4.0 Safari/537.36" version="27.0.9" pages="3">
  <diagram name="circular" id="R14GFa8geyz_NuSQwO44">
    <mxGraphModel dx="396" dy="242" grid="1" gridSize="10" guides="1" tooltips="1" connect="1" arrows="1" fold="1" page="1" pageScale="1" pageWidth="1169" pageHeight="827" math="1" shadow="0">
      <root>
        <mxCell id="wdN8N9_M1Pr-gRUO6Azb-0" />
        <mxCell id="wdN8N9_M1Pr-gRUO6Azb-1" parent="wdN8N9_M1Pr-gRUO6Azb-0" />
        <mxCell id="wdN8N9_M1Pr-gRUO6Azb-2" style="rounded=0;orthogonalLoop=1;jettySize=auto;html=1;exitX=1;exitY=0.5;exitDx=0;exitDy=0;entryX=0;entryY=0.25;entryDx=0;entryDy=0;endArrow=none;startFill=0;fillColor=#f5f5f5;strokeColor=#666666;sketch=1;curveFitting=1;jiggle=1;disableMultiStroke=1;curved=1;startArrow=classic;endFill=0;" edge="1" parent="wdN8N9_M1Pr-gRUO6Azb-1" source="wdN8N9_M1Pr-gRUO6Azb-14" target="wdN8N9_M1Pr-gRUO6Azb-15">
          <mxGeometry relative="1" as="geometry">
            <Array as="points">
              <mxPoint x="590" y="220" />
            </Array>
          </mxGeometry>
        </mxCell>
        <mxCell id="wdN8N9_M1Pr-gRUO6Azb-3" style="rounded=0;orthogonalLoop=1;jettySize=auto;html=1;exitX=0;exitY=0.75;exitDx=0;exitDy=0;entryX=0;entryY=0.5;entryDx=0;entryDy=0;endArrow=none;startFill=0;fillColor=#f5f5f5;strokeColor=#666666;sketch=1;curveFitting=1;jiggle=1;disableMultiStroke=1;curved=1;startArrow=classic;endFill=0;" edge="1" parent="wdN8N9_M1Pr-gRUO6Azb-1" source="wdN8N9_M1Pr-gRUO6Azb-20" target="wdN8N9_M1Pr-gRUO6Azb-14">
          <mxGeometry relative="1" as="geometry">
            <mxPoint x="485.80194185515495" y="244.95074192431127" as="sourcePoint" />
            <mxPoint x="524.64" y="290" as="targetPoint" />
            <Array as="points">
              <mxPoint x="490" y="220" />
            </Array>
          </mxGeometry>
        </mxCell>
        <mxCell id="wdN8N9_M1Pr-gRUO6Azb-5" style="rounded=0;orthogonalLoop=1;jettySize=auto;html=1;exitX=1;exitY=0.5;exitDx=0;exitDy=0;entryX=1;entryY=0.25;entryDx=0;entryDy=0;endArrow=none;startFill=0;fillColor=#f5f5f5;strokeColor=#666666;sketch=1;curveFitting=1;jiggle=1;disableMultiStroke=1;curved=1;endFill=0;startArrow=classic;" edge="1" parent="wdN8N9_M1Pr-gRUO6Azb-1" source="wdN8N9_M1Pr-gRUO6Azb-15" target="wdN8N9_M1Pr-gRUO6Azb-16">
          <mxGeometry relative="1" as="geometry">
            <mxPoint x="580" y="337.32050807568874" as="sourcePoint" />
            <mxPoint x="590" y="485" as="targetPoint" />
            <Array as="points">
              <mxPoint x="580" y="330" />
            </Array>
          </mxGeometry>
        </mxCell>
        <mxCell id="wdN8N9_M1Pr-gRUO6Azb-6" style="rounded=0;orthogonalLoop=1;jettySize=auto;html=1;exitX=0;exitY=0.25;exitDx=0;exitDy=0;entryX=1;entryY=0.5;entryDx=0;entryDy=0;endArrow=none;startFill=0;fillColor=#f5f5f5;strokeColor=#666666;sketch=1;curveFitting=1;jiggle=1;disableMultiStroke=1;curved=1;startArrow=classic;endFill=0;" edge="1" parent="wdN8N9_M1Pr-gRUO6Azb-1" source="wdN8N9_M1Pr-gRUO6Azb-16" target="wdN8N9_M1Pr-gRUO6Azb-20">
          <mxGeometry relative="1" as="geometry">
            <mxPoint x="480" y="520" as="sourcePoint" />
            <mxPoint x="497.65544456622774" y="351.26" as="targetPoint" />
            <Array as="points">
              <mxPoint x="500" y="330" />
            </Array>
          </mxGeometry>
        </mxCell>
        <mxCell id="wdN8N9_M1Pr-gRUO6Azb-8" style="rounded=0;orthogonalLoop=1;jettySize=auto;html=1;exitX=1;exitY=0.5;exitDx=0;exitDy=0;entryX=0;entryY=0.75;entryDx=0;entryDy=0;endArrow=none;startFill=0;fillColor=#f5f5f5;strokeColor=#666666;sketch=1;curveFitting=1;jiggle=1;disableMultiStroke=1;curved=1;startArrow=classic;endFill=0;" edge="1" parent="wdN8N9_M1Pr-gRUO6Azb-1" source="wdN8N9_M1Pr-gRUO6Azb-18" target="wdN8N9_M1Pr-gRUO6Azb-15">
          <mxGeometry relative="1" as="geometry">
            <mxPoint x="640" y="340" as="sourcePoint" />
            <mxPoint x="699" y="365" as="targetPoint" />
            <Array as="points">
              <mxPoint x="580" y="250" />
            </Array>
          </mxGeometry>
        </mxCell>
        <mxCell id="wdN8N9_M1Pr-gRUO6Azb-9" style="rounded=0;orthogonalLoop=1;jettySize=auto;html=1;exitX=0;exitY=0.25;exitDx=0;exitDy=0;entryX=0;entryY=0.5;entryDx=0;entryDy=0;endArrow=none;startFill=0;fillColor=#f5f5f5;strokeColor=#666666;sketch=1;curveFitting=1;jiggle=1;disableMultiStroke=1;curved=1;startArrow=classic;endFill=0;" edge="1" parent="wdN8N9_M1Pr-gRUO6Azb-1" source="wdN8N9_M1Pr-gRUO6Azb-20" target="wdN8N9_M1Pr-gRUO6Azb-18">
          <mxGeometry relative="1" as="geometry">
            <mxPoint x="494.19805814484505" y="249.79824192431124" as="sourcePoint" />
            <mxPoint x="559" y="335" as="targetPoint" />
            <Array as="points">
              <mxPoint x="500" y="250" />
            </Array>
          </mxGeometry>
        </mxCell>
        <mxCell id="wdN8N9_M1Pr-gRUO6Azb-10" value="T" style="ellipse;whiteSpace=wrap;html=1;aspect=fixed;fontFamily=CMU Sans Serif;" vertex="1" parent="wdN8N9_M1Pr-gRUO6Azb-1">
          <mxGeometry x="580" y="339.7" width="20" height="20" as="geometry" />
        </mxCell>
        <mxCell id="wdN8N9_M1Pr-gRUO6Azb-11" style="rounded=0;orthogonalLoop=1;jettySize=auto;html=1;exitX=1;exitY=0;exitDx=0;exitDy=0;entryX=0;entryY=0.75;entryDx=0;entryDy=0;curved=1;" edge="1" parent="wdN8N9_M1Pr-gRUO6Azb-1" source="wdN8N9_M1Pr-gRUO6Azb-12" target="wdN8N9_M1Pr-gRUO6Azb-16">
          <mxGeometry relative="1" as="geometry">
            <Array as="points" />
          </mxGeometry>
        </mxCell>
        <mxCell id="wdN8N9_M1Pr-gRUO6Azb-12" value="S" style="ellipse;whiteSpace=wrap;html=1;aspect=fixed;fontFamily=CMU Sans Serif;" vertex="1" parent="wdN8N9_M1Pr-gRUO6Azb-1">
          <mxGeometry x="480" y="340.3" width="20" height="20" as="geometry" />
        </mxCell>
        <mxCell id="wdN8N9_M1Pr-gRUO6Azb-13" style="rounded=0;orthogonalLoop=1;jettySize=auto;html=1;exitX=1;exitY=0.75;exitDx=0;exitDy=0;entryX=0;entryY=0;entryDx=0;entryDy=0;curved=1;" edge="1" parent="wdN8N9_M1Pr-gRUO6Azb-1" source="wdN8N9_M1Pr-gRUO6Azb-16" target="wdN8N9_M1Pr-gRUO6Azb-10">
          <mxGeometry relative="1" as="geometry">
            <mxPoint x="660" y="510" as="sourcePoint" />
            <mxPoint x="620" y="470" as="targetPoint" />
            <Array as="points" />
          </mxGeometry>
        </mxCell>
        <mxCell id="wdN8N9_M1Pr-gRUO6Azb-14" value="" style="rounded=1;whiteSpace=wrap;html=1;fillColor=#DAE8FC;strokeColor=#6C8EBF;sketch=1;curveFitting=1;jiggle=1;" vertex="1" parent="wdN8N9_M1Pr-gRUO6Azb-1">
          <mxGeometry x="520" y="210" width="40" height="20" as="geometry" />
        </mxCell>
        <mxCell id="wdN8N9_M1Pr-gRUO6Azb-15" value="" style="rounded=1;whiteSpace=wrap;html=1;fillColor=#ffe6cc;strokeColor=#d79b00;rotation=90;sketch=1;curveFitting=1;jiggle=1;" vertex="1" parent="wdN8N9_M1Pr-gRUO6Azb-1">
          <mxGeometry x="570" y="279.7" width="40" height="20" as="geometry" />
        </mxCell>
        <mxCell id="wdN8N9_M1Pr-gRUO6Azb-16" value="" style="rounded=1;whiteSpace=wrap;html=1;fillColor=#f8cecc;strokeColor=#b85450;rotation=0;sketch=1;curveFitting=1;jiggle=1;" vertex="1" parent="wdN8N9_M1Pr-gRUO6Azb-1">
          <mxGeometry x="520" y="320" width="40" height="20" as="geometry" />
        </mxCell>
        <mxCell id="wdN8N9_M1Pr-gRUO6Azb-18" value="" style="rounded=1;whiteSpace=wrap;html=1;fillColor=#DAE8FC;strokeColor=#6C8EBF;sketch=1;curveFitting=1;jiggle=1;" vertex="1" parent="wdN8N9_M1Pr-gRUO6Azb-1">
          <mxGeometry x="520" y="239.7" width="40" height="20" as="geometry" />
        </mxCell>
        <mxCell id="wdN8N9_M1Pr-gRUO6Azb-20" value="" style="rounded=1;whiteSpace=wrap;html=1;fillColor=#ffe6cc;strokeColor=#d79b00;rotation=90;sketch=1;curveFitting=1;jiggle=1;" vertex="1" parent="wdN8N9_M1Pr-gRUO6Azb-1">
          <mxGeometry x="470" y="279.7" width="40" height="20" as="geometry" />
        </mxCell>
        <mxCell id="wdN8N9_M1Pr-gRUO6Azb-21" value="A" style="text;html=1;align=center;verticalAlign=middle;whiteSpace=wrap;rounded=0;" vertex="1" parent="wdN8N9_M1Pr-gRUO6Azb-1">
          <mxGeometry x="530" y="209.7" width="20" height="20.3" as="geometry" />
        </mxCell>
        <mxCell id="wdN8N9_M1Pr-gRUO6Azb-22" value="B" style="text;html=1;align=center;verticalAlign=middle;whiteSpace=wrap;rounded=0;" vertex="1" parent="wdN8N9_M1Pr-gRUO6Azb-1">
          <mxGeometry x="530" y="239.7" width="20" height="20.3" as="geometry" />
        </mxCell>
        <mxCell id="wdN8N9_M1Pr-gRUO6Azb-23" value="C" style="text;html=1;align=center;verticalAlign=middle;whiteSpace=wrap;rounded=0;" vertex="1" parent="wdN8N9_M1Pr-gRUO6Azb-1">
          <mxGeometry x="580" y="279.7" width="20" height="20.3" as="geometry" />
        </mxCell>
        <mxCell id="UdqyEDjGO5QwU2UIad68-0" value="D" style="text;html=1;align=center;verticalAlign=middle;whiteSpace=wrap;rounded=0;" vertex="1" parent="wdN8N9_M1Pr-gRUO6Azb-1">
          <mxGeometry x="530" y="320" width="20" height="20.3" as="geometry" />
        </mxCell>
        <mxCell id="UdqyEDjGO5QwU2UIad68-1" value="D" style="text;html=1;align=center;verticalAlign=middle;whiteSpace=wrap;rounded=0;" vertex="1" parent="wdN8N9_M1Pr-gRUO6Azb-1">
          <mxGeometry x="530" y="320" width="20" height="20.3" as="geometry" />
        </mxCell>
        <mxCell id="UdqyEDjGO5QwU2UIad68-2" value="E" style="text;html=1;align=center;verticalAlign=middle;whiteSpace=wrap;rounded=0;" vertex="1" parent="wdN8N9_M1Pr-gRUO6Azb-1">
          <mxGeometry x="480" y="279.7" width="20" height="20.3" as="geometry" />
        </mxCell>
      </root>
    </mxGraphModel>
  </diagram>
  <diagram name="pc_multi_t" id="1kr3y4HqMrTcrjBMIRZC">
    <mxGraphModel dx="679" dy="415" grid="1" gridSize="10" guides="1" tooltips="1" connect="1" arrows="1" fold="1" page="1" pageScale="1" pageWidth="1169" pageHeight="827" math="0" shadow="0">
      <root>
        <mxCell id="_Gz8Be0adS0cQwmY7c89-0" />
        <mxCell id="_Gz8Be0adS0cQwmY7c89-1" parent="_Gz8Be0adS0cQwmY7c89-0" />
        <mxCell id="yDMMQLMtjPKjjurvnw9a-0" style="rounded=0;orthogonalLoop=1;jettySize=auto;html=1;exitX=1;exitY=0.5;exitDx=0;exitDy=0;entryX=0;entryY=0.25;entryDx=0;entryDy=0;endArrow=none;startFill=0;fillColor=#f5f5f5;strokeColor=#666666;sketch=1;curveFitting=1;jiggle=1;disableMultiStroke=1;curved=1;startArrow=classic;endFill=0;" edge="1" parent="_Gz8Be0adS0cQwmY7c89-1" source="yDMMQLMtjPKjjurvnw9a-10" target="yDMMQLMtjPKjjurvnw9a-11">
          <mxGeometry relative="1" as="geometry">
            <Array as="points">
              <mxPoint x="590" y="260.29999999999995" />
            </Array>
          </mxGeometry>
        </mxCell>
        <mxCell id="yDMMQLMtjPKjjurvnw9a-1" style="rounded=0;orthogonalLoop=1;jettySize=auto;html=1;exitX=0;exitY=0.75;exitDx=0;exitDy=0;entryX=0;entryY=0.75;entryDx=0;entryDy=0;endArrow=none;startFill=0;fillColor=#f5f5f5;strokeColor=#666666;sketch=1;curveFitting=1;jiggle=1;disableMultiStroke=1;curved=1;startArrow=none;endFill=0;dashed=1;" edge="1" parent="_Gz8Be0adS0cQwmY7c89-1" source="yDMMQLMtjPKjjurvnw9a-14" target="yDMMQLMtjPKjjurvnw9a-10">
          <mxGeometry relative="1" as="geometry">
            <mxPoint x="485.80194185515495" y="285.25074192431134" as="sourcePoint" />
            <mxPoint x="524.64" y="330.29999999999995" as="targetPoint" />
            <Array as="points">
              <mxPoint x="490" y="260.29999999999995" />
            </Array>
          </mxGeometry>
        </mxCell>
        <mxCell id="yDMMQLMtjPKjjurvnw9a-2" style="rounded=0;orthogonalLoop=1;jettySize=auto;html=1;exitX=1;exitY=0.5;exitDx=0;exitDy=0;entryX=1;entryY=0.5;entryDx=0;entryDy=0;endArrow=none;startFill=0;fillColor=#f5f5f5;strokeColor=#666666;sketch=1;curveFitting=1;jiggle=1;disableMultiStroke=1;curved=1;endFill=0;startArrow=classic;" edge="1" parent="_Gz8Be0adS0cQwmY7c89-1" source="yDMMQLMtjPKjjurvnw9a-11" target="yDMMQLMtjPKjjurvnw9a-12">
          <mxGeometry relative="1" as="geometry">
            <mxPoint x="580" y="377.6205080756888" as="sourcePoint" />
            <mxPoint x="590" y="525.3" as="targetPoint" />
            <Array as="points">
              <mxPoint x="580" y="370" />
            </Array>
          </mxGeometry>
        </mxCell>
        <mxCell id="yDMMQLMtjPKjjurvnw9a-3" style="rounded=0;orthogonalLoop=1;jettySize=auto;html=1;exitX=0;exitY=0.5;exitDx=0;exitDy=0;entryX=1;entryY=0.5;entryDx=0;entryDy=0;endArrow=none;startFill=0;fillColor=#f5f5f5;strokeColor=#666666;sketch=1;curveFitting=1;jiggle=1;disableMultiStroke=1;curved=1;startArrow=classic;endFill=0;" edge="1" parent="_Gz8Be0adS0cQwmY7c89-1" source="yDMMQLMtjPKjjurvnw9a-12" target="yDMMQLMtjPKjjurvnw9a-14">
          <mxGeometry relative="1" as="geometry">
            <mxPoint x="480" y="560.3" as="sourcePoint" />
            <mxPoint x="497.65544456622774" y="391.55999999999995" as="targetPoint" />
            <Array as="points">
              <mxPoint x="500" y="370.29999999999995" />
            </Array>
          </mxGeometry>
        </mxCell>
        <mxCell id="yDMMQLMtjPKjjurvnw9a-4" style="rounded=0;orthogonalLoop=1;jettySize=auto;html=1;exitX=1;exitY=0.5;exitDx=0;exitDy=0;entryX=0;entryY=0.75;entryDx=0;entryDy=0;endArrow=none;startFill=0;fillColor=#f5f5f5;strokeColor=#666666;sketch=1;curveFitting=1;jiggle=1;disableMultiStroke=1;curved=1;startArrow=classic;endFill=0;" edge="1" parent="_Gz8Be0adS0cQwmY7c89-1" source="yDMMQLMtjPKjjurvnw9a-13" target="yDMMQLMtjPKjjurvnw9a-11">
          <mxGeometry relative="1" as="geometry">
            <mxPoint x="640" y="380.29999999999995" as="sourcePoint" />
            <mxPoint x="699" y="405.29999999999995" as="targetPoint" />
            <Array as="points">
              <mxPoint x="580" y="290.29999999999995" />
            </Array>
          </mxGeometry>
        </mxCell>
        <mxCell id="yDMMQLMtjPKjjurvnw9a-5" style="rounded=0;orthogonalLoop=1;jettySize=auto;html=1;exitX=0;exitY=0.25;exitDx=0;exitDy=0;entryX=0;entryY=0.75;entryDx=0;entryDy=0;endArrow=none;startFill=0;fillColor=#f5f5f5;strokeColor=#666666;sketch=1;curveFitting=1;jiggle=1;disableMultiStroke=1;curved=1;startArrow=none;endFill=0;dashed=1;" edge="1" parent="_Gz8Be0adS0cQwmY7c89-1" source="yDMMQLMtjPKjjurvnw9a-14" target="yDMMQLMtjPKjjurvnw9a-13">
          <mxGeometry relative="1" as="geometry">
            <mxPoint x="494.19805814484505" y="290.0982419243112" as="sourcePoint" />
            <mxPoint x="559" y="375.29999999999995" as="targetPoint" />
            <Array as="points">
              <mxPoint x="500" y="290.29999999999995" />
            </Array>
          </mxGeometry>
        </mxCell>
        <mxCell id="yDMMQLMtjPKjjurvnw9a-6" value="T" style="ellipse;whiteSpace=wrap;html=1;aspect=fixed;fontFamily=CMU Sans Serif;" vertex="1" parent="_Gz8Be0adS0cQwmY7c89-1">
          <mxGeometry x="480" y="220" width="20" height="20" as="geometry" />
        </mxCell>
        <mxCell id="yDMMQLMtjPKjjurvnw9a-7" style="rounded=0;orthogonalLoop=1;jettySize=auto;html=1;exitX=1;exitY=0.5;exitDx=0;exitDy=0;entryX=0;entryY=0.5;entryDx=0;entryDy=0;curved=1;" edge="1" parent="_Gz8Be0adS0cQwmY7c89-1" source="yDMMQLMtjPKjjurvnw9a-8" target="yDMMQLMtjPKjjurvnw9a-14">
          <mxGeometry relative="1" as="geometry">
            <Array as="points">
              <mxPoint x="490" y="270" />
            </Array>
          </mxGeometry>
        </mxCell>
        <mxCell id="yDMMQLMtjPKjjurvnw9a-8" value="S" style="ellipse;whiteSpace=wrap;html=1;aspect=fixed;fontFamily=CMU Sans Serif;" vertex="1" parent="_Gz8Be0adS0cQwmY7c89-1">
          <mxGeometry x="450" y="260" width="20" height="20" as="geometry" />
        </mxCell>
        <mxCell id="yDMMQLMtjPKjjurvnw9a-9" style="rounded=0;orthogonalLoop=1;jettySize=auto;html=1;exitX=0;exitY=0.25;exitDx=0;exitDy=0;entryX=1;entryY=1;entryDx=0;entryDy=0;curved=1;" edge="1" parent="_Gz8Be0adS0cQwmY7c89-1" source="yDMMQLMtjPKjjurvnw9a-10" target="yDMMQLMtjPKjjurvnw9a-6">
          <mxGeometry relative="1" as="geometry">
            <mxPoint x="660" y="550.3" as="sourcePoint" />
            <mxPoint x="620" y="510.29999999999995" as="targetPoint" />
            <Array as="points">
              <mxPoint x="510" y="260" />
            </Array>
          </mxGeometry>
        </mxCell>
        <mxCell id="yDMMQLMtjPKjjurvnw9a-10" value="" style="rounded=1;whiteSpace=wrap;html=1;fillColor=#DAE8FC;strokeColor=#6C8EBF;sketch=1;curveFitting=1;jiggle=1;" vertex="1" parent="_Gz8Be0adS0cQwmY7c89-1">
          <mxGeometry x="520" y="250.29999999999995" width="40" height="20" as="geometry" />
        </mxCell>
        <mxCell id="yDMMQLMtjPKjjurvnw9a-11" value="" style="rounded=1;whiteSpace=wrap;html=1;fillColor=#ffe6cc;strokeColor=#d79b00;rotation=90;sketch=1;curveFitting=1;jiggle=1;" vertex="1" parent="_Gz8Be0adS0cQwmY7c89-1">
          <mxGeometry x="570" y="320" width="40" height="20" as="geometry" />
        </mxCell>
        <mxCell id="yDMMQLMtjPKjjurvnw9a-12" value="" style="rounded=1;whiteSpace=wrap;html=1;fillColor=#f8cecc;strokeColor=#b85450;rotation=0;sketch=1;curveFitting=1;jiggle=1;" vertex="1" parent="_Gz8Be0adS0cQwmY7c89-1">
          <mxGeometry x="520" y="360.29999999999995" width="40" height="20" as="geometry" />
        </mxCell>
        <mxCell id="yDMMQLMtjPKjjurvnw9a-13" value="" style="rounded=1;whiteSpace=wrap;html=1;fillColor=#DAE8FC;strokeColor=#6C8EBF;sketch=1;curveFitting=1;jiggle=1;" vertex="1" parent="_Gz8Be0adS0cQwmY7c89-1">
          <mxGeometry x="520" y="280" width="40" height="20" as="geometry" />
        </mxCell>
        <mxCell id="yDMMQLMtjPKjjurvnw9a-14" value="" style="rounded=1;whiteSpace=wrap;html=1;fillColor=#ffe6cc;strokeColor=#d79b00;rotation=90;sketch=1;curveFitting=1;jiggle=1;" vertex="1" parent="_Gz8Be0adS0cQwmY7c89-1">
          <mxGeometry x="470" y="320" width="40" height="20" as="geometry" />
        </mxCell>
        <mxCell id="yDMMQLMtjPKjjurvnw9a-15" value="A" style="text;html=1;align=center;verticalAlign=middle;whiteSpace=wrap;rounded=0;" vertex="1" parent="_Gz8Be0adS0cQwmY7c89-1">
          <mxGeometry x="530" y="250" width="20" height="20.3" as="geometry" />
        </mxCell>
        <mxCell id="yDMMQLMtjPKjjurvnw9a-16" value="B" style="text;html=1;align=center;verticalAlign=middle;whiteSpace=wrap;rounded=0;" vertex="1" parent="_Gz8Be0adS0cQwmY7c89-1">
          <mxGeometry x="530" y="280" width="20" height="20.3" as="geometry" />
        </mxCell>
        <mxCell id="yDMMQLMtjPKjjurvnw9a-17" value="C" style="text;html=1;align=center;verticalAlign=middle;whiteSpace=wrap;rounded=0;" vertex="1" parent="_Gz8Be0adS0cQwmY7c89-1">
          <mxGeometry x="580" y="320" width="20" height="20.3" as="geometry" />
        </mxCell>
        <mxCell id="yDMMQLMtjPKjjurvnw9a-18" value="D" style="text;html=1;align=center;verticalAlign=middle;whiteSpace=wrap;rounded=0;" vertex="1" parent="_Gz8Be0adS0cQwmY7c89-1">
          <mxGeometry x="530" y="360.29999999999995" width="20" height="20.3" as="geometry" />
        </mxCell>
        <mxCell id="yDMMQLMtjPKjjurvnw9a-19" value="D" style="text;html=1;align=center;verticalAlign=middle;whiteSpace=wrap;rounded=0;" vertex="1" parent="_Gz8Be0adS0cQwmY7c89-1">
          <mxGeometry x="530" y="360.29999999999995" width="20" height="20.3" as="geometry" />
        </mxCell>
        <mxCell id="yDMMQLMtjPKjjurvnw9a-20" value="E" style="text;html=1;align=center;verticalAlign=middle;whiteSpace=wrap;rounded=0;" vertex="1" parent="_Gz8Be0adS0cQwmY7c89-1">
          <mxGeometry x="480" y="320" width="20" height="20.3" as="geometry" />
        </mxCell>
        <mxCell id="yDMMQLMtjPKjjurvnw9a-21" style="rounded=0;orthogonalLoop=1;jettySize=auto;html=1;exitX=0;exitY=0.25;exitDx=0;exitDy=0;entryX=0.5;entryY=1;entryDx=0;entryDy=0;curved=1;" edge="1" parent="_Gz8Be0adS0cQwmY7c89-1" source="yDMMQLMtjPKjjurvnw9a-13" target="yDMMQLMtjPKjjurvnw9a-6">
          <mxGeometry relative="1" as="geometry">
            <Array as="points">
              <mxPoint x="490" y="290" />
            </Array>
          </mxGeometry>
        </mxCell>
      </root>
    </mxGraphModel>
  </diagram>
  <diagram name="pc_multi_s" id="RBShkRdeetXOofl8vqjP">
    <mxGraphModel dx="159" dy="97" grid="1" gridSize="10" guides="1" tooltips="1" connect="1" arrows="1" fold="1" page="1" pageScale="1" pageWidth="1169" pageHeight="827" math="0" shadow="0">
      <root>
        <mxCell id="Wv-RxHRkED4RFy53XuGP-0" />
        <mxCell id="Wv-RxHRkED4RFy53XuGP-1" parent="Wv-RxHRkED4RFy53XuGP-0" />
        <mxCell id="GiGRpMw3eq3bT0vq2VGR-0" style="rounded=0;orthogonalLoop=1;jettySize=auto;html=1;exitX=1;exitY=0.5;exitDx=0;exitDy=0;entryX=0;entryY=0.25;entryDx=0;entryDy=0;endArrow=classic;startFill=0;fillColor=#f5f5f5;strokeColor=#666666;sketch=1;curveFitting=1;jiggle=1;disableMultiStroke=1;curved=1;startArrow=none;endFill=0;" edge="1" parent="Wv-RxHRkED4RFy53XuGP-1" source="GiGRpMw3eq3bT0vq2VGR-10" target="GiGRpMw3eq3bT0vq2VGR-11">
          <mxGeometry relative="1" as="geometry">
            <Array as="points">
              <mxPoint x="550" y="230.29999999999995" />
            </Array>
          </mxGeometry>
        </mxCell>
        <mxCell id="GiGRpMw3eq3bT0vq2VGR-1" style="rounded=0;orthogonalLoop=1;jettySize=auto;html=1;exitX=0;exitY=0.75;exitDx=0;exitDy=0;entryX=0;entryY=0.75;entryDx=0;entryDy=0;endArrow=none;startFill=0;fillColor=#f5f5f5;strokeColor=#666666;sketch=1;curveFitting=1;jiggle=1;disableMultiStroke=1;curved=1;startArrow=none;endFill=0;dashed=1;" edge="1" parent="Wv-RxHRkED4RFy53XuGP-1" source="GiGRpMw3eq3bT0vq2VGR-14" target="GiGRpMw3eq3bT0vq2VGR-10">
          <mxGeometry relative="1" as="geometry">
            <mxPoint x="445.80194185515484" y="255.25074192431134" as="sourcePoint" />
            <mxPoint x="484.6399999999999" y="300.29999999999995" as="targetPoint" />
            <Array as="points">
              <mxPoint x="450" y="230.29999999999995" />
            </Array>
          </mxGeometry>
        </mxCell>
        <mxCell id="GiGRpMw3eq3bT0vq2VGR-2" style="rounded=0;orthogonalLoop=1;jettySize=auto;html=1;exitX=1;exitY=0.5;exitDx=0;exitDy=0;entryX=1;entryY=0.5;entryDx=0;entryDy=0;endArrow=classic;startFill=0;fillColor=#f5f5f5;strokeColor=#666666;sketch=1;curveFitting=1;jiggle=1;disableMultiStroke=1;curved=1;endFill=0;startArrow=none;" edge="1" parent="Wv-RxHRkED4RFy53XuGP-1" source="GiGRpMw3eq3bT0vq2VGR-11" target="GiGRpMw3eq3bT0vq2VGR-12">
          <mxGeometry relative="1" as="geometry">
            <mxPoint x="540" y="347.6205080756888" as="sourcePoint" />
            <mxPoint x="550" y="495.29999999999995" as="targetPoint" />
            <Array as="points">
              <mxPoint x="540" y="340.29999999999995" />
            </Array>
          </mxGeometry>
        </mxCell>
        <mxCell id="GiGRpMw3eq3bT0vq2VGR-3" style="rounded=0;orthogonalLoop=1;jettySize=auto;html=1;exitX=0;exitY=0.5;exitDx=0;exitDy=0;entryX=1;entryY=0.5;entryDx=0;entryDy=0;endArrow=classic;startFill=0;fillColor=#f5f5f5;strokeColor=#666666;sketch=1;curveFitting=1;jiggle=1;disableMultiStroke=1;curved=1;startArrow=none;endFill=0;" edge="1" parent="Wv-RxHRkED4RFy53XuGP-1" source="GiGRpMw3eq3bT0vq2VGR-12" target="GiGRpMw3eq3bT0vq2VGR-14">
          <mxGeometry relative="1" as="geometry">
            <mxPoint x="440" y="530.3" as="sourcePoint" />
            <mxPoint x="457.65544456622774" y="361.55999999999995" as="targetPoint" />
            <Array as="points">
              <mxPoint x="460" y="340.29999999999995" />
            </Array>
          </mxGeometry>
        </mxCell>
        <mxCell id="GiGRpMw3eq3bT0vq2VGR-4" style="rounded=0;orthogonalLoop=1;jettySize=auto;html=1;exitX=1;exitY=0.5;exitDx=0;exitDy=0;entryX=0;entryY=0.75;entryDx=0;entryDy=0;endArrow=classic;startFill=0;fillColor=#f5f5f5;strokeColor=#666666;sketch=1;curveFitting=1;jiggle=1;disableMultiStroke=1;curved=1;startArrow=none;endFill=0;" edge="1" parent="Wv-RxHRkED4RFy53XuGP-1" source="GiGRpMw3eq3bT0vq2VGR-13" target="GiGRpMw3eq3bT0vq2VGR-11">
          <mxGeometry relative="1" as="geometry">
            <mxPoint x="600" y="350.29999999999995" as="sourcePoint" />
            <mxPoint x="659" y="375.29999999999995" as="targetPoint" />
            <Array as="points">
              <mxPoint x="540" y="260.29999999999995" />
            </Array>
          </mxGeometry>
        </mxCell>
        <mxCell id="GiGRpMw3eq3bT0vq2VGR-5" style="rounded=0;orthogonalLoop=1;jettySize=auto;html=1;exitX=0;exitY=0.25;exitDx=0;exitDy=0;entryX=0;entryY=0.75;entryDx=0;entryDy=0;endArrow=none;startFill=0;fillColor=#f5f5f5;strokeColor=#666666;sketch=1;curveFitting=1;jiggle=1;disableMultiStroke=1;curved=1;startArrow=none;endFill=0;dashed=1;" edge="1" parent="Wv-RxHRkED4RFy53XuGP-1" source="GiGRpMw3eq3bT0vq2VGR-14" target="GiGRpMw3eq3bT0vq2VGR-13">
          <mxGeometry relative="1" as="geometry">
            <mxPoint x="454.19805814484516" y="260.0982419243112" as="sourcePoint" />
            <mxPoint x="519" y="345.29999999999995" as="targetPoint" />
            <Array as="points">
              <mxPoint x="460" y="260.29999999999995" />
            </Array>
          </mxGeometry>
        </mxCell>
        <mxCell id="GiGRpMw3eq3bT0vq2VGR-6" value="S" style="ellipse;whiteSpace=wrap;html=1;aspect=fixed;fontFamily=CMU Sans Serif;" vertex="1" parent="Wv-RxHRkED4RFy53XuGP-1">
          <mxGeometry x="440" y="190" width="20" height="20" as="geometry" />
        </mxCell>
        <mxCell id="GiGRpMw3eq3bT0vq2VGR-7" style="rounded=0;orthogonalLoop=1;jettySize=auto;html=1;exitX=1;exitY=0.5;exitDx=0;exitDy=0;entryX=0;entryY=0.5;entryDx=0;entryDy=0;curved=1;startArrow=classic;startFill=1;endArrow=none;" edge="1" parent="Wv-RxHRkED4RFy53XuGP-1" source="GiGRpMw3eq3bT0vq2VGR-8" target="GiGRpMw3eq3bT0vq2VGR-14">
          <mxGeometry relative="1" as="geometry">
            <Array as="points">
              <mxPoint x="460" y="240" />
            </Array>
          </mxGeometry>
        </mxCell>
        <mxCell id="GiGRpMw3eq3bT0vq2VGR-8" value="T" style="ellipse;whiteSpace=wrap;html=1;aspect=fixed;fontFamily=CMU Sans Serif;" vertex="1" parent="Wv-RxHRkED4RFy53XuGP-1">
          <mxGeometry x="410" y="230" width="20" height="20" as="geometry" />
        </mxCell>
        <mxCell id="GiGRpMw3eq3bT0vq2VGR-9" style="rounded=0;orthogonalLoop=1;jettySize=auto;html=1;exitX=0;exitY=0.25;exitDx=0;exitDy=0;entryX=1;entryY=1;entryDx=0;entryDy=0;curved=1;startArrow=classic;startFill=1;endArrow=none;" edge="1" parent="Wv-RxHRkED4RFy53XuGP-1" source="GiGRpMw3eq3bT0vq2VGR-10" target="GiGRpMw3eq3bT0vq2VGR-6">
          <mxGeometry relative="1" as="geometry">
            <mxPoint x="620" y="520.3" as="sourcePoint" />
            <mxPoint x="580" y="480.29999999999995" as="targetPoint" />
            <Array as="points">
              <mxPoint x="460" y="230" />
            </Array>
          </mxGeometry>
        </mxCell>
        <mxCell id="GiGRpMw3eq3bT0vq2VGR-10" value="" style="rounded=1;whiteSpace=wrap;html=1;fillColor=#DAE8FC;strokeColor=#6C8EBF;sketch=1;curveFitting=1;jiggle=1;" vertex="1" parent="Wv-RxHRkED4RFy53XuGP-1">
          <mxGeometry x="480" y="220.29999999999995" width="40" height="20" as="geometry" />
        </mxCell>
        <mxCell id="GiGRpMw3eq3bT0vq2VGR-11" value="" style="rounded=1;whiteSpace=wrap;html=1;fillColor=#ffe6cc;strokeColor=#d79b00;rotation=90;sketch=1;curveFitting=1;jiggle=1;" vertex="1" parent="Wv-RxHRkED4RFy53XuGP-1">
          <mxGeometry x="530" y="290" width="40" height="20" as="geometry" />
        </mxCell>
        <mxCell id="GiGRpMw3eq3bT0vq2VGR-12" value="" style="rounded=1;whiteSpace=wrap;html=1;fillColor=#f8cecc;strokeColor=#b85450;rotation=0;sketch=1;curveFitting=1;jiggle=1;" vertex="1" parent="Wv-RxHRkED4RFy53XuGP-1">
          <mxGeometry x="480" y="330.29999999999995" width="40" height="20" as="geometry" />
        </mxCell>
        <mxCell id="GiGRpMw3eq3bT0vq2VGR-13" value="" style="rounded=1;whiteSpace=wrap;html=1;fillColor=#DAE8FC;strokeColor=#6C8EBF;sketch=1;curveFitting=1;jiggle=1;" vertex="1" parent="Wv-RxHRkED4RFy53XuGP-1">
          <mxGeometry x="480" y="250" width="40" height="20" as="geometry" />
        </mxCell>
        <mxCell id="GiGRpMw3eq3bT0vq2VGR-14" value="" style="rounded=1;whiteSpace=wrap;html=1;fillColor=#ffe6cc;strokeColor=#d79b00;rotation=90;sketch=1;curveFitting=1;jiggle=1;" vertex="1" parent="Wv-RxHRkED4RFy53XuGP-1">
          <mxGeometry x="430" y="290" width="40" height="20" as="geometry" />
        </mxCell>
        <mxCell id="GiGRpMw3eq3bT0vq2VGR-15" value="A" style="text;html=1;align=center;verticalAlign=middle;whiteSpace=wrap;rounded=0;" vertex="1" parent="Wv-RxHRkED4RFy53XuGP-1">
          <mxGeometry x="490" y="220" width="20" height="20.3" as="geometry" />
        </mxCell>
        <mxCell id="GiGRpMw3eq3bT0vq2VGR-16" value="B" style="text;html=1;align=center;verticalAlign=middle;whiteSpace=wrap;rounded=0;" vertex="1" parent="Wv-RxHRkED4RFy53XuGP-1">
          <mxGeometry x="490" y="250" width="20" height="20.3" as="geometry" />
        </mxCell>
        <mxCell id="GiGRpMw3eq3bT0vq2VGR-17" value="C" style="text;html=1;align=center;verticalAlign=middle;whiteSpace=wrap;rounded=0;" vertex="1" parent="Wv-RxHRkED4RFy53XuGP-1">
          <mxGeometry x="540" y="290" width="20" height="20.3" as="geometry" />
        </mxCell>
        <mxCell id="GiGRpMw3eq3bT0vq2VGR-18" value="D" style="text;html=1;align=center;verticalAlign=middle;whiteSpace=wrap;rounded=0;" vertex="1" parent="Wv-RxHRkED4RFy53XuGP-1">
          <mxGeometry x="490" y="330.29999999999995" width="20" height="20.3" as="geometry" />
        </mxCell>
        <mxCell id="GiGRpMw3eq3bT0vq2VGR-19" value="D" style="text;html=1;align=center;verticalAlign=middle;whiteSpace=wrap;rounded=0;" vertex="1" parent="Wv-RxHRkED4RFy53XuGP-1">
          <mxGeometry x="490" y="330.29999999999995" width="20" height="20.3" as="geometry" />
        </mxCell>
        <mxCell id="GiGRpMw3eq3bT0vq2VGR-20" value="E" style="text;html=1;align=center;verticalAlign=middle;whiteSpace=wrap;rounded=0;" vertex="1" parent="Wv-RxHRkED4RFy53XuGP-1">
          <mxGeometry x="440" y="290" width="20" height="20.3" as="geometry" />
        </mxCell>
        <mxCell id="GiGRpMw3eq3bT0vq2VGR-21" style="rounded=0;orthogonalLoop=1;jettySize=auto;html=1;exitX=0;exitY=0.25;exitDx=0;exitDy=0;entryX=0.5;entryY=1;entryDx=0;entryDy=0;curved=1;startArrow=classic;startFill=1;endArrow=none;" edge="1" parent="Wv-RxHRkED4RFy53XuGP-1" source="GiGRpMw3eq3bT0vq2VGR-13" target="GiGRpMw3eq3bT0vq2VGR-6">
          <mxGeometry relative="1" as="geometry">
            <Array as="points">
              <mxPoint x="450" y="260" />
            </Array>
          </mxGeometry>
        </mxCell>
      </root>
    </mxGraphModel>
  </diagram>
</mxfile>
